<svg xmlns="http://www.w3.org/2000/svg" width="356.864" height="78.354" viewBox="0 0 356.864 78.354"><defs><style>.a{fill:#ffca00;}.a,.b,.c,.d{fill-rule:evenodd;}.b,.g{fill:#fff;}.c{fill:#acdefa;}.d{fill:#002535;}.e{fill:#d98a00;}.f{fill:#00a9ea;}</style></defs><g transform="translate(-225.117 -275.83)"><path class="a" d="M244.324,277.576v7.229l-1.167.343-.291,1.133h-2.9v8.705h-8.705v11.507l-1.167.418-.391,1.133h-2.8v10.791h2.826l.36,1.133,1.167.392V349.3h2.847l.339,1.133,1.167.28v2.939h62.955v-2.822l1.166-.4.415-1.133h2.771V320.38l1.166-.412.472-1.132h2.714V308.043H304.5l-.409-1.133-1.166-.371V294.986h-8.705v-8.705h-2.657l-.53-1.133-1.166-.533v-7.038H279.077l0,2.8-1.1.422-.476,1.131H256.468l-.253-1.131-1.1-.229v-2.991Z" transform="translate(-0.631 -0.613)"/><path class="b" d="M255.938,295.946V300.3h-4.353v4.359l-4.352-.006h-8.705V309h4.353v34.82h4.352v8.7H295.11v-8.7h4.352V309h4.352v-4.352H290.758V300.3h-4.352v-4.352Z" transform="translate(-4.705 -7.058)"/><path class="c" d="M260.59,314.008v4.352h-4.352v4.352H246.228v-4.352h-4.353v-4.352h-4.352v-5.656h27.419v5.656Zm39.172,0v4.352H295.41v4.352H285.4v-4.352h-4.352v-4.352H276.7v-5.656h27.419v5.656Z" transform="translate(-4.353 -11.411)"/><path class="d" d="M268.642,319.355h4.353v4.352h-8.705V315h-4.352V310.65h-4.352V315h-17.41V310.65h-4.353V306.3h-4.352v13.058h4.352v30.467h17.41V345.47h-8.7v-4.352h13.058v8.7h21.762v-8.7H290.4v4.352H281.7v4.352h21.762V306.3H299.11v4.352h-4.352V315h-17.41V310.65h-17.41V306.3h4.352v-8.7h4.352v8.7h4.353V315h-4.353v4.353Zm-21.762-17.41v-4.352h13.058v4.352h-4.352V306.3h-4.353v-4.352Zm4.352,4.352v4.352h-8.7V306.3h8.7Zm-8.7,0h-4.352v-4.352h-4.353v-4.352h8.705v8.7Zm43.525-4.352v-4.352H299.11v4.352h-4.352V306.3H290.4v-4.352ZM290.4,306.3v4.352H281.7V306.3H290.4Zm-8.705,0h-4.352v-4.352h-4.352v-4.352h8.7v8.7ZM242.527,275.83h13.058v4.353h21.762V275.83H290.4v17.41H242.527v-8.7h4.352v-4.352h8.705v4.352h21.762v-4.352h8.7v4.352h8.705v8.7h8.7V306.3h4.352v13.058h-8.7v34.82H233.822v-4.353h-4.352V319.355h-4.352V306.3h4.352V293.24h8.705v-8.7h4.352V275.83ZM290.4,332.413v4.353H277.347V323.708h8.7v-4.352H290.4v4.352h-4.353v4.352H281.7v4.352Zm-39.173,0V328.06h-4.352v-4.352h-4.352v-4.352h4.352v4.352h8.705v13.058H242.527v-4.353Z"/><rect class="e" width="4.352" height="4.352" transform="translate(246.879 284.535)"/><rect class="e" width="4.352" height="4.352" transform="translate(281.699 284.535)"/><rect class="f" width="4.353" height="4.352" transform="translate(233.822 297.592)"/><rect class="f" width="4.352" height="4.353" transform="translate(238.174 301.945)"/><rect class="f" width="4.352" height="4.352" transform="translate(272.994 297.592)"/><rect class="f" width="4.353" height="4.353" transform="translate(277.347 301.945)"/><rect class="f" width="4.353" height="4.352" transform="translate(242.527 306.298)"/><rect class="f" width="4.352" height="4.352" transform="translate(281.699 306.298)"/><rect class="e" width="4.353" height="4.353" transform="translate(233.822 345.47)"/><rect class="e" width="4.352" height="4.353" transform="translate(229.469 315.003)"/><rect class="e" width="4.353" height="4.352" transform="translate(233.822 319.355)"/><rect class="e" width="4.353" height="4.353" transform="translate(299.11 315.003)"/><rect class="e" width="4.352" height="4.352" transform="translate(294.757 319.355)"/><rect class="e" width="4.353" height="4.353" transform="translate(294.757 345.47)"/><rect class="g" width="4.352" height="4.352" transform="translate(246.879 297.592)"/><rect class="g" width="4.353" height="4.352" transform="translate(286.052 297.592)"/><g transform="translate(325.219 284.535)"><path class="d" d="M444.036,315.362V297.953h0v-8.708h-4.353V293.6l.007,0h-.007v4.352h0v21.756h4.353Z" transform="translate(-400.506 -289.242)"/><path class="d" d="M524.353,315.364V297.955h0V293.6h0V289.25H520V293.6h0v4.352h0v21.756h4.353Z" transform="translate(-428.688 -289.244)"/><path class="d" d="M682.586,319.711h4.352v-4.352H665.175v-17.4h0V293.6h0V289.25h-4.353V293.6h0v4.352h0v21.756h21.764Z" transform="translate(-478.099 -289.244)"/><path class="d" d="M622.235,311.012h4.353v8.7h4.353V293.6h-4.353V289.25H604.824V293.6h-4.353v4.352h0v21.757h4.353v-8.7h17.411Zm-13.059-4.352h-4.352v-8.7h0V293.6h21.764v13.056H609.176Z" transform="translate(-456.923 -289.244)"/><path class="d" d="M566.235,293.6h4.353V289.25h-30.47V293.6h13.059v4.348l.008,0h-.008v21.757h4.353V293.6h8.706Z" transform="translate(-435.747 -289.244)"/><path class="d" d="M642.5,349.61H620.74v4.353H633.8v4.348l.006,0-.006,4.353v8.7h0v8.7h4.353v-8.7h0V353.963H651.21V349.61H642.5Z" transform="translate(-464.035 -310.423)"/><path class="d" d="M756.5,353.955V349.61H734.738V358.3h0v21.757h4.353v-8.7h17.353v8.7H760.8v-8.7H756.5v-4.343H760.8v-4.352h-.007l.007,0v-8.706Zm-.058,4.354v8.7H739.091V353.963h17.353v4.345h0Z" transform="translate(-504.035 -310.423)"/><path class="d" d="M698.5,349.61H681.091v30.452h26.117V375.71H685.444v-8.7h17.411v-4.352H685.444v-8.7h21.764V349.61H698.5Z" transform="translate(-485.211 -310.423)"/><path class="d" d="M465.8,349.6H444.035v4.352h-4.353V358.3h0v8.7h0v4.352h0v8.7h4.353v-8.7H465.8v8.7h4.353v-8.7h0v-4.352h0V353.948H465.8Zm0,6.809v10.6H444.035v-8.7h0v-4.352H465.8Z" transform="translate(-400.506 -310.419)"/><path class="d" d="M485.918,315.358h4.353v-4.352h0v-8.7H477.212v4.352h8.706v4.348h0v4.351H464.153V293.6h21.765v-4.353H464.153V293.6H459.8v4.353l.007,0H459.8v21.757h26.117Z" transform="translate(-407.565 -289.242)"/><path class="d" d="M405.447,297.947h.006l-.006,0V302.3h0v4.35h0V311h0v4.35H383.682v-17.4h0V293.6l-.014,0h.014v0h21.764V289.24H383.682v0h-4.353v8.708h0v21.756h26.118v-4.351H409.8v-4.351h0v-4.35h0V302.3h0v-8.707h-4.353Z" transform="translate(-379.329 -289.24)"/><path class="d" d="M508.741,349.6h-8.706v8.7h0v21.757h4.353V358.3h0v-4.349h4.353Z" transform="translate(-421.682 -310.419)"/><path class="d" d="M533.563,360.655v4.352h4.353v-8.69h-4.353Z" transform="translate(-433.447 -312.776)"/><path class="d" d="M517.8,365.006v-8.689h-4.353v8.7h4.332v4.338h8.706v-4.353H517.8Z" transform="translate(-426.388 -312.776)"/><path class="d" d="M540.27,349.6v4.353h4.353V358.3h0v21.757h4.353V358.3h0v-8.7H540.27Z" transform="translate(-435.8 -310.419)"/><path class="d" d="M578.149,374.064h17.411v-4.352H573.8v4.352Z" transform="translate(-447.564 -317.476)"/><path class="d" d="M607.326,380.768v4.353h4.353v-8.7h-4.353Z" transform="translate(-459.329 -319.829)"/><path class="d" d="M584.5,349.6H571.444v4.351h-4.353v8.706h4.353V358.3h0v-4.351h21.764V349.6H584.5Z" transform="translate(-445.211 -310.418)"/><path class="d" d="M586.855,389.826H573.8v4.353h21.764v-4.353h-8.706Z" transform="translate(-447.564 -324.534)"/><path class="d" d="M405.447,353.944l.005,0h-.005V358.3h0v4.352H383.682V358.3h0v-8.708h-4.353v4.353l0,0h0V358.3h0v21.757h4.353V367h21.764v13.052H409.8V358.3h0v-8.708h-4.353Z" transform="translate(-379.329 -310.416)"/></g></g></svg>